HIERARCHY
ROOT Hips
{
	OFFSET -3.958830 18.904000 13.208200
	CHANNELS 6 Xposition Yposition Zposition Zrotation Yrotation Xrotation 
	JOINT LHipJoint
	{
		OFFSET 0.000000 0.000000 0.000000
		CHANNELS 3 Zrotation Yrotation Xrotation
		JOINT LeftUpLeg
		{
			OFFSET 1.800000 -1.400000 0.085000
			CHANNELS 3 Zrotation Yrotation Xrotation
			JOINT LeftLeg
			{
				OFFSET 2.215000 -6.000000 0.000000
				CHANNELS 3 Zrotation Yrotation Xrotation
				JOINT LeftFoot
				{
					OFFSET 2.500000 -6.900000 0.000000
					CHANNELS 3 Zrotation Yrotation Xrotation
					JOINT LeftToeBase
					{
						OFFSET 0.200000 -0.500000 1.950000
						CHANNELS 3 Zrotation Yrotation Xrotation
						End Site
						{
							OFFSET 0.000000 0.000000 0.000000
						}
					}
				}
			}
		}
	}
	JOINT RHipJoint
	{
		OFFSET 0.000000 0.000000 0.000000
		CHANNELS 3 Zrotation Yrotation Xrotation
		JOINT RightUpLeg
		{
			OFFSET -1.800000 -1.400000 0.085000
			CHANNELS 3 Zrotation Yrotation Xrotation
			JOINT RightLeg
			{
				OFFSET -2.215000 -6.000000 0.000000
				CHANNELS 3 Zrotation Yrotation Xrotation
				JOINT RightFoot
				{
					OFFSET -2.500000 -6.900000 0.000000
					CHANNELS 3 Zrotation Yrotation Xrotation
					JOINT RightToeBase
					{
						OFFSET -0.200000 -0.500000 1.950000
						CHANNELS 3 Zrotation Yrotation Xrotation
						End Site
						{
							OFFSET 0.000000 0.000000 0.000000
						}
					}
				}
			}
		}
	}
	JOINT LowerBack
	{
		OFFSET 0.000000 0.000000 0.000000
		CHANNELS 3 Zrotation Yrotation Xrotation
		JOINT Spine
		{
			OFFSET -0.087000 1.940000 -0.288900
			CHANNELS 3 Zrotation Yrotation Xrotation
			JOINT Spine1
			{
				OFFSET 0.000000 1.950000 0.060000
				CHANNELS 3 Zrotation Yrotation Xrotation
				JOINT Neck
				{
					OFFSET 0.000000 0.000000 0.000000
					CHANNELS 3 Zrotation Yrotation Xrotation
					JOINT Neck1
					{
						OFFSET 0.000000 1.600000 0.340000
						CHANNELS 3 Zrotation Yrotation Xrotation
						JOINT Head
						{
							OFFSET 0.000000 1.667000 -0.240000
							CHANNELS 3 Zrotation Yrotation Xrotation
							End Site
							{
								OFFSET 0.000000 0.000000 0.000000
							}
						}
					}
				}
				JOINT LeftShoulder
				{
					OFFSET 0.000000 0.000000 0.000000
					CHANNELS 3 Zrotation Yrotation Xrotation
					JOINT LeftArm
					{
						OFFSET 2.700000 1.550000 -0.730000
						CHANNELS 3 Zrotation Yrotation Xrotation
						JOINT LeftForeArm
						{
							OFFSET 5.450000 0.000000 0.000000
							CHANNELS 3 Zrotation Yrotation Xrotation
							JOINT LeftHand
							{
								OFFSET 3.450000 0.000000 0.000000
								CHANNELS 3 Zrotation Yrotation Xrotation
								JOINT LeftHandIndex1
								{
									OFFSET 0.750000 0.000000 0.000000
									CHANNELS 3 Zrotation Yrotation Xrotation
									End Site
									{
										OFFSET 0.000000 0.000000 0.000000
									}
								}
							}
						}
					}
				}
				JOINT RightShoulder
				{
					OFFSET 0.000000 0.000000 0.000000
					CHANNELS 3 Zrotation Yrotation Xrotation
					JOINT RightArm
					{
						OFFSET -2.700000 1.550000 -0.730000
						CHANNELS 3 Zrotation Yrotation Xrotation
						JOINT RightForeArm
						{
							OFFSET -5.450000 0.000000 0.000000
							CHANNELS 3 Zrotation Yrotation Xrotation
							JOINT RightHand
							{
								OFFSET -3.450000 0.000000 0.000000
								CHANNELS 3 Zrotation Yrotation Xrotation
								JOINT RightHandIndex1
								{
									OFFSET -0.750000 0.000000 0.000000
									CHANNELS 3 Zrotation Yrotation Xrotation
									End Site
									{
										OFFSET 0.000000 0.000000 0.000000
									}
								}
							}
						}
					}
				}
			}
		}
	}
}
MOTION
Frames: 6
Frame Time: 0.016667
-20.195700 16.869060 5.624380 -3.091770 44.993800 11.642056 -15.076508 10.415997 3.955033 7.633299 -4.528260 -34.522435 0.256093 0.078270 -10.325219 -2.484481 3.243096 3.170658 3.367530 2.944510 2.420190 18.836523 -10.536015 2.254686 2.700901 1.342556 -11.821182 7.219595 -4.256611 11.912133 -1.281954 -4.415048 1.880808 2.393190 -0.012280 1.321480 -4.817880 1.454571 -6.869665 14.158623 9.510391 -3.724528 -2.131893 8.346764 0.199051 -0.889254 -3.170358 4.166670 -4.480298 15.652808 12.336484 0.710960 5.412760 -20.445790 -11.300767 8.056299 -9.897944 -19.299588 -41.666466 17.065090 9.131077 -41.655760 -2.318997 -3.543105 4.450114 0.944550 0.345890 0.707600 1.004770 11.038777 -5.213282 -5.833287 4.178588 21.460937 6.862708 -9.609573 48.723207 -2.164801 0.942361 -3.333034 0.098340 0.111890 -1.257870 -0.314430 
-20.183140 16.854460 5.634980 -2.849873 45.780338 11.583182 -15.075373 10.409897 3.931306 7.186483 -4.622467 -34.240599 0.025349 0.060530 -10.374280 -2.445366 3.199578 3.212240 3.345040 2.935780 2.399270 18.839230 -10.553471 2.266966 2.766809 1.119058 -11.271991 7.270795 -4.233451 11.386356 -1.260958 -4.457352 1.903099 2.385020 0.007770 1.291500 -4.842061 1.489314 -6.863624 13.916702 8.880912 -3.785611 -2.129442 7.688776 0.729852 -0.749392 -3.131205 3.749911 -4.425293 15.966283 12.057966 0.800220 5.725830 -19.757440 -12.269468 8.095080 -9.065745 -14.088079 -36.170725 13.064616 9.126930 -45.499213 -2.362520 -3.541776 4.512984 0.905230 0.361070 0.675610 1.012340 12.052552 -5.213327 -5.738817 3.030474 19.970906 6.136399 -9.719151 47.840975 -2.395604 0.984473 -3.342720 0.090650 0.104510 -1.280110 -0.298370 
-20.182200 16.855250 5.638010 -2.897061 46.737450 11.195686 -15.073917 10.383429 3.932459 6.838784 -4.632232 -33.804835 -0.468953 0.046579 -10.985855 -2.344508 3.184533 3.229085 3.261690 2.830560 2.359390 18.844250 -10.559591 2.278261 3.104677 0.897634 -10.697488 7.113984 -4.257360 10.986013 -1.263131 -4.446759 1.941971 2.273090 -0.017560 1.295600 -4.898751 1.521033 -6.897766 14.237884 8.223814 -3.357944 -2.534472 7.081322 1.399138 -0.435179 -3.149340 3.195261 -4.449235 16.296534 12.419198 0.781860 6.562290 -20.117050 -13.553549 7.780577 -8.082966 -9.428046 -29.905950 9.726210 8.967765 -48.484974 -2.423300 -3.509775 4.540063 0.931740 0.332070 0.691540 0.993920 12.935644 -4.959241 -5.524832 2.220205 18.590657 5.108577 -9.674466 46.851006 -2.389373 1.062668 -3.290506 0.102110 0.043290 -1.276150 -0.298460 
-20.168310 16.852920 5.645180 -3.079680 47.335936 10.769364 -15.068372 10.434189 3.863150 6.564462 -4.567412 -33.353047 -0.204702 0.100776 -10.450379 -2.290417 3.136018 3.276248 3.159240 2.698310 2.315730 18.840093 -10.616349 2.313748 3.334147 0.777140 -10.284691 7.062071 -4.335001 11.001340 -1.251007 -4.463676 1.960937 2.165120 -0.002160 1.294590 -4.961520 1.563809 -6.894162 14.699017 7.657130 -3.069836 -2.990495 6.602043 1.969792 -0.193597 -3.216408 2.616532 -4.550314 16.641371 12.585126 0.577920 7.285860 -19.922590 -14.128551 7.583399 -7.076257 -6.656415 -24.105388 7.633957 11.594646 -51.006595 -3.810937 -3.538026 4.525246 0.937040 0.331910 0.671120 0.963720 13.215476 -4.729899 -5.348341 2.017849 17.913222 4.470621 -9.192827 44.455490 -2.186574 1.124806 -3.225857 0.090480 0.014480 -1.240460 -0.307840 
-20.149390 16.852030 5.649960 -3.316395 48.181405 10.344035 -15.073344 10.462634 3.831686 6.244504 -4.581432 -32.996297 0.001232 0.122105 -10.457617 -2.207931 3.100164 3.320476 3.038630 2.551100 2.258590 18.829231 -10.631528 2.344384 3.375573 0.641183 -9.816390 7.699836 -4.562864 10.886189 -1.233519 -4.522096 1.979041 2.041590 0.009960 1.287120 -4.999048 1.553253 -6.921683 15.114158 7.111719 -2.693023 -3.374932 6.083674 2.059955 0.086784 -3.124068 2.106864 -4.365482 16.613410 12.747663 0.231540 7.863140 -19.509110 -13.808314 7.857560 -6.386523 -6.021076 -20.053122 6.736037 10.697773 -51.840641 -3.551034 -3.539868 4.540551 0.931710 0.333430 0.644510 0.931070 12.520423 -5.129352 -5.110311 3.729839 17.144387 3.992556 -10.066875 43.304439 -2.409165 1.181114 -3.170619 0.081070 -0.029420 -1.209090 -0.311850 
-20.127470 16.854440 5.650310 -4.488137 48.814100 9.227693 -15.054199 10.422658 3.811763 6.780804 -4.374192 -32.911204 -0.321133 0.214688 -10.240453 -2.111429 3.088751 3.344761 2.901840 2.371910 2.191360 18.843079 -10.668897 2.397220 3.733411 0.531868 -9.406995 8.986179 -4.977313 11.058120 -1.230532 -4.596868 1.998489 1.884570 0.000000 1.256120 -5.163702 1.703450 -6.992117 16.821989 6.891071 -1.981998 -4.071471 5.944263 0.918802 0.240667 -3.326451 2.197399 -4.481055 16.125455 13.366728 0.175670 8.023490 -19.635670 -12.970034 9.410154 -6.516483 -7.281556 -19.432310 6.643012 8.590043 -47.926664 -2.216368 -3.483454 4.545366 0.967230 0.290300 0.626970 0.890760 11.150364 -6.601491 -5.044498 6.263149 17.139336 3.869738 -10.746214 41.795197 -2.356985 1.265522 -3.094590 0.063890 -0.069660 -1.170130 -0.320760 
